<svg width="148" height="37" viewBox="0 0 148 37" fill="none" xmlns="http://www.w3.org/2000/svg">
<rect y="2" width="73" height="35" rx="4" fill="#AB6EEA"/>
<path d="M8.33594 9.43945H14.1123C16.5837 9.43945 18.4541 9.78646 19.7236 10.4805C20.9932 11.1745 21.6279 12.3932 21.6279 14.1367C21.6279 14.8392 21.5137 15.474 21.2852 16.041C21.0651 16.6081 20.7435 17.0736 20.3203 17.4375C19.8971 17.8014 19.3809 18.0384 18.7715 18.1484V18.2754C19.3893 18.4023 19.9479 18.6224 20.4473 18.9355C20.9466 19.2402 21.3444 19.6888 21.6406 20.2812C21.9453 20.8652 22.0977 21.6439 22.0977 22.6172C22.0977 23.7428 21.8226 24.7077 21.2725 25.5117C20.7223 26.3158 19.9352 26.9336 18.9111 27.3652C17.8955 27.7884 16.6852 28 15.2803 28H8.33594V9.43945ZM12.2715 16.79H14.5566C15.6992 16.79 16.4906 16.6123 16.9307 16.2568C17.3708 15.8929 17.5908 15.3597 17.5908 14.6572C17.5908 13.9463 17.3285 13.4385 16.8037 13.1338C16.2874 12.8206 15.4665 12.6641 14.3408 12.6641H12.2715V16.79ZM12.2715 19.9131V24.75H14.8359C16.0208 24.75 16.846 24.5215 17.3115 24.0645C17.777 23.6074 18.0098 22.9938 18.0098 22.2236C18.0098 21.7666 17.9082 21.3646 17.7051 21.0176C17.502 20.6706 17.1592 20.3997 16.6768 20.2051C16.2028 20.0104 15.5469 19.9131 14.709 19.9131H12.2715ZM30.2745 13.5146C32.1787 13.5146 33.6387 13.9294 34.6543 14.7588C35.67 15.5882 36.1778 16.8493 36.1778 18.542V28H33.4737L32.7246 26.0703H32.6231C32.2168 26.5781 31.8021 26.9928 31.3789 27.3145C30.9558 27.6361 30.4691 27.873 29.919 28.0254C29.3689 28.1777 28.7002 28.2539 27.9131 28.2539C27.0752 28.2539 26.322 28.0931 25.6534 27.7715C24.9932 27.4499 24.4727 26.959 24.0918 26.2988C23.711 25.6302 23.5205 24.7839 23.5205 23.7598C23.5205 22.2533 24.0495 21.1445 25.1075 20.4336C26.1654 19.7142 27.7523 19.3164 29.8682 19.2402L32.3311 19.1641V18.542C32.3311 17.7972 32.1364 17.2513 31.7471 16.9043C31.3578 16.5573 30.8161 16.3838 30.1221 16.3838C29.4366 16.3838 28.7637 16.4811 28.1036 16.6758C27.4434 16.8704 26.7832 17.1159 26.1231 17.4121L24.8409 14.7969C25.5941 14.3991 26.4362 14.0859 27.3672 13.8574C28.3067 13.6289 29.2758 13.5146 30.2745 13.5146ZM32.3311 21.4238L30.833 21.4746C29.5804 21.5085 28.7087 21.7327 28.2178 22.1475C27.7354 22.5622 27.4942 23.1081 27.4942 23.7852C27.4942 24.3776 27.6677 24.8008 28.0147 25.0547C28.3617 25.3001 28.8145 25.4229 29.3731 25.4229C30.2025 25.4229 30.9008 25.1774 31.4678 24.6865C32.0433 24.1956 32.3311 23.4974 32.3311 22.5918V21.4238ZM43.0089 8.24609V12.8418C43.0089 13.375 42.9919 13.904 42.9581 14.4287C42.9327 14.9535 42.8988 15.3597 42.8565 15.6475H43.0089C43.3813 15.0635 43.8891 14.5684 44.5323 14.1621C45.1755 13.7474 46.0092 13.54 47.0333 13.54C48.6244 13.54 49.9151 14.1621 50.9054 15.4062C51.8956 16.6504 52.3907 18.4743 52.3907 20.8779C52.3907 22.4945 52.1622 23.8529 51.7052 24.9531C51.2481 26.0449 50.6091 26.8701 49.7882 27.4287C48.9672 27.9788 48.0151 28.2539 46.9317 28.2539C45.8907 28.2539 45.0697 28.0677 44.4688 27.6953C43.8679 27.3229 43.3813 26.904 43.0089 26.4385H42.7423L42.0948 28H39.1368V8.24609H43.0089ZM45.7891 16.6377C45.1121 16.6377 44.5746 16.7773 44.1768 17.0566C43.779 17.3359 43.4871 17.7549 43.3009 18.3135C43.1231 18.8721 43.0258 19.5788 43.0089 20.4336V20.8525C43.0089 22.2321 43.212 23.29 43.6182 24.0264C44.0245 24.7542 44.7651 25.1182 45.8399 25.1182C46.6355 25.1182 47.266 24.75 47.7315 24.0137C48.2055 23.2773 48.4425 22.2152 48.4425 20.8271C48.4425 19.4391 48.2055 18.3939 47.7315 17.6914C47.2576 16.9889 46.6101 16.6377 45.7891 16.6377ZM52.5187 13.8066H56.7589L59.4376 21.792C59.5223 22.0459 59.5942 22.304 59.6534 22.5664C59.7127 22.8288 59.7635 23.0996 59.8058 23.3789C59.8481 23.6582 59.882 23.9502 59.9073 24.2549H59.9835C60.0343 23.7979 60.102 23.3704 60.1866 22.9727C60.2797 22.5749 60.394 22.1813 60.5294 21.792L63.1573 13.8066H67.3087L61.3038 29.8154C60.9399 30.7972 60.4659 31.6139 59.882 32.2656C59.298 32.9258 58.6251 33.4209 57.8634 33.751C57.1101 34.0811 56.2807 34.2461 55.3751 34.2461C54.935 34.2461 54.5542 34.2207 54.2325 34.1699C53.9109 34.1276 53.6359 34.0811 53.4073 34.0303V30.958C53.5851 31.0003 53.8094 31.0384 54.0802 31.0723C54.351 31.1061 54.6346 31.123 54.9308 31.123C55.4724 31.123 55.9379 31.0088 56.3273 30.7803C56.7166 30.5518 57.0424 30.2428 57.3048 29.8535C57.5672 29.4727 57.7745 29.0537 57.9269 28.5967L58.1554 27.8984L52.5187 13.8066Z" fill="white"/>
<path d="M90.8032 23.6475C90.8032 24.79 90.5264 25.7832 89.9727 26.627C89.4189 27.4707 88.6104 28.1211 87.5469 28.5781C86.4922 29.0352 85.209 29.2637 83.6973 29.2637C83.0293 29.2637 82.3745 29.2197 81.7329 29.1318C81.1001 29.0439 80.4893 28.9165 79.9004 28.7495C79.3203 28.5737 78.7666 28.3584 78.2393 28.1035V24.3066C79.1533 24.7109 80.1025 25.0757 81.0869 25.4009C82.0713 25.7261 83.0469 25.8887 84.0137 25.8887C84.6816 25.8887 85.2178 25.8008 85.6221 25.625C86.0352 25.4492 86.334 25.2075 86.5186 24.8999C86.7031 24.5923 86.7954 24.2407 86.7954 23.8452C86.7954 23.3618 86.6328 22.9487 86.3076 22.606C85.9824 22.2632 85.5342 21.9424 84.9629 21.6436C84.4004 21.3447 83.7632 21.0239 83.0513 20.6812C82.603 20.4702 82.1152 20.2153 81.5879 19.9165C81.0605 19.6089 80.5596 19.2354 80.085 18.7959C79.6104 18.3564 79.2192 17.8247 78.9116 17.2007C78.6128 16.5679 78.4634 15.812 78.4634 14.9331C78.4634 13.7817 78.7271 12.7974 79.2544 11.98C79.7817 11.1626 80.5332 10.5386 81.5088 10.1079C82.4932 9.66846 83.6533 9.44873 84.9893 9.44873C85.9912 9.44873 86.9448 9.56738 87.8501 9.80469C88.7642 10.0332 89.7178 10.3672 90.7109 10.8066L89.3926 13.9839C88.5049 13.6235 87.7095 13.3467 87.0063 13.1533C86.3032 12.9512 85.5869 12.8501 84.8574 12.8501C84.3477 12.8501 83.9126 12.9336 83.5522 13.1006C83.1919 13.2588 82.9194 13.4873 82.7349 13.7861C82.5503 14.0762 82.458 14.4146 82.458 14.8013C82.458 15.2583 82.5898 15.645 82.8535 15.9614C83.126 16.269 83.5303 16.5679 84.0664 16.8579C84.6113 17.1479 85.2881 17.4863 86.0967 17.873C87.0811 18.3389 87.9204 18.8267 88.6147 19.3364C89.3179 19.8374 89.8584 20.4307 90.2363 21.1162C90.6143 21.793 90.8032 22.6367 90.8032 23.6475ZM98.8858 29.2637C97.4268 29.2637 96.1832 29 95.1549 28.4727C94.1265 27.9365 93.3443 27.1104 92.8082 25.9941C92.2721 24.8779 92.004 23.4497 92.004 21.7095C92.004 19.9077 92.3072 18.4399 92.9137 17.3062C93.5289 16.1636 94.377 15.3242 95.4581 14.7881C96.5479 14.252 97.8092 13.9839 99.2418 13.9839C100.261 13.9839 101.14 14.085 101.878 14.2871C102.626 14.4805 103.276 14.7134 103.83 14.9858L102.643 18.0972C102.01 17.8423 101.421 17.6357 100.877 17.4775C100.332 17.3105 99.7867 17.2271 99.2418 17.2271C98.5387 17.2271 97.9542 17.394 97.4884 17.728C97.0225 18.0532 96.6754 18.5454 96.4469 19.2046C96.2183 19.8638 96.1041 20.6899 96.1041 21.6831C96.1041 22.6587 96.2271 23.4673 96.4732 24.1089C96.7193 24.7505 97.0753 25.2295 97.5411 25.5459C98.0069 25.8535 98.5738 26.0073 99.2418 26.0073C100.077 26.0073 100.819 25.8975 101.47 25.6777C102.12 25.4492 102.753 25.1328 103.368 24.7285V28.1694C102.753 28.5562 102.107 28.833 101.43 29C100.762 29.1758 99.9141 29.2637 98.8858 29.2637ZM119.111 21.604C119.111 22.8345 118.944 23.9243 118.61 24.8735C118.284 25.8228 117.805 26.627 117.173 27.2861C116.548 27.9365 115.793 28.4287 114.905 28.7627C114.026 29.0967 113.033 29.2637 111.925 29.2637C110.888 29.2637 109.935 29.0967 109.065 28.7627C108.203 28.4287 107.452 27.9365 106.81 27.2861C106.177 26.627 105.685 25.8228 105.334 24.8735C104.991 23.9243 104.819 22.8345 104.819 21.604C104.819 19.9692 105.11 18.585 105.69 17.4512C106.27 16.3174 107.096 15.4561 108.168 14.8672C109.24 14.2783 110.519 13.9839 112.005 13.9839C113.384 13.9839 114.606 14.2783 115.67 14.8672C116.742 15.4561 117.581 16.3174 118.188 17.4512C118.803 18.585 119.111 19.9692 119.111 21.604ZM108.92 21.604C108.92 22.5708 109.025 23.3838 109.236 24.043C109.447 24.7021 109.777 25.1987 110.225 25.5327C110.673 25.8667 111.257 26.0337 111.978 26.0337C112.69 26.0337 113.266 25.8667 113.705 25.5327C114.153 25.1987 114.479 24.7021 114.681 24.043C114.892 23.3838 114.997 22.5708 114.997 21.604C114.997 20.6284 114.892 19.8198 114.681 19.1782C114.479 18.5278 114.153 18.04 113.705 17.7148C113.257 17.3896 112.673 17.2271 111.952 17.2271C110.888 17.2271 110.115 17.5918 109.632 18.3213C109.157 19.0508 108.92 20.145 108.92 21.604ZM134.879 14.2607V29H131.794L131.254 27.1147H131.043C130.726 27.6157 130.331 28.0244 129.856 28.3408C129.382 28.6572 128.859 28.8901 128.287 29.0396C127.716 29.189 127.123 29.2637 126.508 29.2637C125.453 29.2637 124.534 29.0791 123.752 28.71C122.97 28.332 122.359 27.7476 121.92 26.9565C121.489 26.1655 121.274 25.1372 121.274 23.8716V14.2607H125.295V22.8696C125.295 23.9243 125.484 24.7197 125.862 25.2559C126.239 25.792 126.842 26.0601 127.668 26.0601C128.485 26.0601 129.127 25.8755 129.593 25.5063C130.058 25.1284 130.384 24.5791 130.568 23.8584C130.761 23.1289 130.858 22.2412 130.858 21.1953V14.2607H134.879ZM144.227 26.0601C144.667 26.0601 145.093 26.0161 145.506 25.9282C145.928 25.8403 146.346 25.7305 146.759 25.5986V28.5913C146.328 28.7847 145.792 28.9429 145.15 29.0659C144.517 29.1978 143.823 29.2637 143.067 29.2637C142.188 29.2637 141.397 29.123 140.694 28.8418C140 28.5518 139.451 28.0552 139.046 27.3521C138.651 26.6401 138.453 25.6514 138.453 24.3857V17.2798H136.528V15.5791L138.743 14.2344L139.903 11.123H142.474V14.2607H146.6V17.2798H142.474V24.3857C142.474 24.9482 142.632 25.3701 142.949 25.6514C143.274 25.9238 143.7 26.0601 144.227 26.0601Z" fill="#A254F3"/>
</svg>
